<svg xmlns:xlink="http://www.w3.org/1999/xlink" xmlns="http://www.w3.org/2000/svg" viewBox="0 0 640 640" width="42"
     height="42">
    <defs>
        <path d="M500 300c0 110.38-89.62 200-200 200s-200-89.62-200-200c0-110.39 89.62-200 200-200s200 89.61 200 200Z"
              id="a"/>
        <path d="M520 338.18c0 110.38-89.62 200-200 200s-200-89.62-200-200 89.62-200 200-200 200 89.62 200 200Z"
              id="b"/>
        <path d="M543.03 374.84c0 110.39-89.62 200-200 200s-200-89.61-200-200c0-110.38 89.62-200 200-200s200 89.62 200 200Z"
              id="c"/>
        <mask id="e" x="78" y="78" width="600" height="600" maskUnits="userSpaceOnUse">
            <path fill="#fff" d="M78 78h444v444H78z"/>
            <use xlink:href="#a" opacity=".46"/>
        </mask>
        <mask id="f" x="98" y="116.18" width="444" height="444" maskUnits="userSpaceOnUse">
            <path fill="#fff" d="M98 116.18h444v444H98z"/>
            <use xlink:href="#b" opacity=".46"/>
        </mask>
        <mask id="g" x="121.03" y="152.84" width="444" height="444" maskUnits="userSpaceOnUse">
            <path fill="#fff" d="M121.03 152.84h444v444h-444z"/>
            <use xlink:href="#c" opacity=".46"/>
        </mask>
        <filter id="d">
            <feFlood/>
            <feComposite in2="SourceAlpha" operator="in"/>
            <feGaussianBlur stdDeviation="1"/>
            <feOffset dx="14" dy="10" result="afterOffset"/>
            <feFlood flood-color="#0d0e44" flood-opacity=".5"/>
            <feComposite in2="afterOffset" operator="in"/>
            <feMorphology operator="dilate" radius="1"/>
            <feComposite in2="SourceAlpha" operator="out"/>
        </filter>
    </defs>
    <path d="M500 300c0 110.38-89.62 200-200 200s-200-89.62-200-200c0-110.39 89.62-200 200-200s200 89.61 200 200Z"
          filter="url(#d)"/>
    <use xlink:href="#a" opacity=".46" fill="#fefefe"/>
    <g mask="url(#e)">
        <use xlink:href="#a" opacity=".46" fill-opacity="0" stroke="#06697d" stroke-width="44"/>
    </g>
    <path d="M520 338.18c0 110.38-89.62 200-200 200s-200-89.62-200-200 89.62-200 200-200 200 89.62 200 200Z"
          filter="url(#d)"/>
    <use xlink:href="#b" opacity=".46" fill="#fefefe"/>
    <g mask="url(#f)">
        <use xlink:href="#b" opacity=".46" fill-opacity="0" stroke="#06697d" stroke-width="44"/>
    </g>
    <path d="M543.03 374.84c0 110.39-89.62 200-200 200s-200-89.61-200-200c0-110.38 89.62-200 200-200s200 89.62 200 200Z"
          filter="url(#d)"/>
    <use xlink:href="#c" opacity=".46" fill="#fefefe"/>
    <g mask="url(#g)">
        <use xlink:href="#c" opacity=".46" fill-opacity="0" stroke="#06697d" stroke-width="44"/>
    </g>
</svg>